<svg xmlns="http://www.w3.org/2000/svg" xmlns:xlink="http://www.w3.org/1999/xlink" width="1400" zoomAndPan="magnify" viewBox="0 0 1050 1049.999947" height="1400" preserveAspectRatio="xMidYMid meet" version="1.0"><defs><g/><clipPath id="ee4ec5bd1b"><path d="M 40 240 L 483 240 L 483 709 L 40 709 Z M 40 240 " clip-rule="nonzero"/></clipPath><clipPath id="ee8d91003f"><path d="M 108.75 159.230469 L 1064.464844 352.183594 L 955.667969 891.0625 L -0.046875 698.105469 Z M 108.75 159.230469 " clip-rule="nonzero"/></clipPath><clipPath id="cd0020d422"><path d="M 1064.199219 352.128906 L 108.484375 159.175781 L -0.3125 698.050781 L 955.402344 891.007812 Z M 1064.199219 352.128906 " clip-rule="nonzero"/></clipPath><clipPath id="5c1588e471"><path d="M 201 238 L 766 238 L 766 637 L 201 637 Z M 201 238 " clip-rule="nonzero"/></clipPath><clipPath id="4793a89dbd"><path d="M 108.75 159.230469 L 1064.464844 352.183594 L 955.667969 891.0625 L -0.046875 698.105469 Z M 108.75 159.230469 " clip-rule="nonzero"/></clipPath><clipPath id="841639c998"><path d="M 1064.199219 352.128906 L 108.484375 159.175781 L -0.3125 698.050781 L 955.402344 891.007812 Z M 1064.199219 352.128906 " clip-rule="nonzero"/></clipPath><clipPath id="5993aa7a14"><path d="M 206 532 L 572 532 L 572 668 L 206 668 Z M 206 532 " clip-rule="nonzero"/></clipPath><clipPath id="3d9cb9292a"><path d="M 108.75 159.230469 L 1064.464844 352.183594 L 955.667969 891.0625 L -0.046875 698.105469 Z M 108.75 159.230469 " clip-rule="nonzero"/></clipPath><clipPath id="f6bf3953fb"><path d="M 1064.199219 352.128906 L 108.484375 159.175781 L -0.3125 698.050781 L 955.402344 891.007812 Z M 1064.199219 352.128906 " clip-rule="nonzero"/></clipPath><clipPath id="631dd970f0"><path d="M 515 280 L 596 280 L 596 533 L 515 533 Z M 515 280 " clip-rule="nonzero"/></clipPath><clipPath id="8d1236dd93"><path d="M 108.75 159.230469 L 1064.464844 352.183594 L 955.667969 891.0625 L -0.046875 698.105469 Z M 108.75 159.230469 " clip-rule="nonzero"/></clipPath><clipPath id="31f391a478"><path d="M 1064.199219 352.128906 L 108.484375 159.175781 L -0.3125 698.050781 L 955.402344 891.007812 Z M 1064.199219 352.128906 " clip-rule="nonzero"/></clipPath><clipPath id="81ad37593f"><path d="M 569 522 L 1017 522 L 1017 587 L 569 587 Z M 569 522 " clip-rule="nonzero"/></clipPath><clipPath id="f6e395bc92"><path d="M 108.75 159.230469 L 1064.464844 352.183594 L 955.667969 891.0625 L -0.046875 698.105469 Z M 108.75 159.230469 " clip-rule="nonzero"/></clipPath><clipPath id="eed885b02c"><path d="M 1064.199219 352.128906 L 108.484375 159.175781 L -0.3125 698.050781 L 955.402344 891.007812 Z M 1064.199219 352.128906 " clip-rule="nonzero"/></clipPath><clipPath id="aed30a3058"><path d="M 198 547 L 1017 547 L 1017 678 L 198 678 Z M 198 547 " clip-rule="nonzero"/></clipPath><clipPath id="d083fb7d16"><path d="M 108.75 159.230469 L 1064.464844 352.183594 L 955.667969 891.0625 L -0.046875 698.105469 Z M 108.75 159.230469 " clip-rule="nonzero"/></clipPath><clipPath id="e8c61e3f1b"><path d="M 1064.199219 352.128906 L 108.484375 159.175781 L -0.3125 698.050781 L 955.402344 891.007812 Z M 1064.199219 352.128906 " clip-rule="nonzero"/></clipPath></defs><g clip-path="url(#ee4ec5bd1b)"><g clip-path="url(#ee8d91003f)"><g clip-path="url(#cd0020d422)"><path fill="#bb1b22" d="M 78.28125 427.195312 C 36.878906 513.386719 31.050781 615.507812 53.554688 708.300781 C 101.5625 696.488281 149.976562 686.265625 198.800781 677.625 C 202.921875 674.085938 207.203125 670.625 211.769531 667.140625 L 206.5625 636.28125 C 197.695312 579.480469 199.898438 452.855469 211.414062 390.738281 C 231.292969 373.898438 251.953125 358.078125 273.398438 343.28125 C 294.839844 328.484375 316.960938 314.777344 339.757812 302.167969 C 362.554688 289.558594 385.917969 278.105469 409.847656 267.804688 C 433.777344 257.503906 458.15625 248.410156 482.984375 240.519531 C 332.335938 266.980469 170.15625 348.425781 78.28125 427.195312 Z M 78.28125 427.195312 " fill-opacity="1" fill-rule="nonzero"/></g></g></g><g clip-path="url(#5c1588e471)"><g clip-path="url(#4793a89dbd)"><g clip-path="url(#841639c998)"><path fill="#ed1c24" d="M 211.414062 390.738281 C 199.898438 452.855469 197.695312 579.480469 206.5625 636.28125 C 235.386719 623.117188 264.664062 611.058594 294.398438 600.101562 C 324.132812 589.148438 354.234375 579.328125 384.707031 570.644531 C 415.183594 561.960938 445.941406 554.4375 476.980469 548.070312 C 508.023438 541.707031 539.257812 536.523438 570.691406 532.515625 C 577.082031 448.285156 554.960938 364.515625 515.042969 280.535156 C 520.933594 289.855469 526.527344 299.351562 531.824219 309.023438 C 537.121094 318.695312 542.113281 328.523438 546.796875 338.503906 C 551.480469 348.488281 555.847656 358.605469 559.902344 368.863281 C 563.957031 379.117188 567.6875 389.488281 571.09375 399.976562 C 574.5 410.464844 577.578125 421.046875 580.324219 431.726562 C 583.070312 442.40625 585.480469 453.164062 587.558594 463.992188 C 589.632812 474.824219 591.371094 485.707031 592.769531 496.648438 C 594.167969 507.585938 595.222656 518.558594 595.933594 529.5625 C 652.4375 523.542969 709.082031 521.546875 765.871094 523.566406 C 758.144531 487.949219 728.519531 416.300781 728.519531 416.300781 C 669.035156 345.90625 588.203125 278.804688 496.84375 238.199219 C 492.25 238.917969 487.648438 239.695312 482.984375 240.519531 C 458.15625 248.410156 433.777344 257.503906 409.847656 267.804688 C 385.917969 278.105469 362.554688 289.558594 339.757812 302.167969 C 316.960938 314.777344 294.839844 328.484375 273.398438 343.28125 C 251.953125 358.078125 231.292969 373.898438 211.414062 390.738281 Z M 211.414062 390.738281 " fill-opacity="1" fill-rule="nonzero"/></g></g></g><g clip-path="url(#5993aa7a14)"><g clip-path="url(#3d9cb9292a)"><g clip-path="url(#f6bf3953fb)"><path fill="#ef545a" d="M 206.5625 636.28125 L 211.769531 667.140625 C 247.070312 640.386719 295.546875 616.910156 339.085938 602.734375 C 411.878906 579.058594 491.160156 564.621094 571.203125 556.324219 L 569.859375 542.238281 C 570.171875 539 570.488281 535.765625 570.691406 532.515625 C 539.257812 536.523438 508.023438 541.707031 476.980469 548.070312 C 445.941406 554.4375 415.183594 561.960938 384.707031 570.644531 C 354.234375 579.328125 324.132812 589.148438 294.398438 600.101562 C 264.664062 611.058594 235.386719 623.117188 206.5625 636.28125 Z M 206.5625 636.28125 " fill-opacity="1" fill-rule="nonzero"/></g></g></g><g clip-path="url(#631dd970f0)"><g clip-path="url(#8d1236dd93)"><g clip-path="url(#31f391a478)"><path fill="#bb1b22" d="M 515.042969 280.535156 C 554.960938 364.515625 577.082031 448.285156 570.691406 532.515625 C 579.097656 531.433594 587.492188 530.464844 595.933594 529.5625 C 595.222656 518.558594 594.167969 507.585938 592.769531 496.648438 C 591.371094 485.707031 589.632812 474.824219 587.558594 463.992188 C 585.480469 453.164062 583.070312 442.40625 580.324219 431.726562 C 577.578125 421.046875 574.5 410.464844 571.09375 399.976562 C 567.6875 389.488281 563.957031 379.117188 559.902344 368.863281 C 555.847656 358.605469 551.480469 348.488281 546.796875 338.503906 C 542.113281 328.523438 537.121094 318.695312 531.824219 309.023438 C 526.527344 299.351562 520.933594 289.855469 515.042969 280.535156 Z M 515.042969 280.535156 " fill-opacity="1" fill-rule="nonzero"/></g></g></g><g clip-path="url(#81ad37593f)"><g clip-path="url(#f6e395bc92)"><g clip-path="url(#eed885b02c)"><path fill="#f13b42" d="M 765.925781 523.574219 L 765.871094 523.566406 C 709.082031 521.546875 652.4375 523.542969 595.933594 529.5625 C 587.492188 530.464844 579.097656 531.433594 570.691406 532.515625 C 570.488281 535.765625 570.171875 539 569.859375 542.238281 L 571.203125 556.324219 C 609.015625 552.316406 647.023438 549.769531 684.617188 548.261719 C 796.316406 543.824219 909.503906 554.527344 1016.253906 586.746094 C 1017.203125 577.847656 1017.179688 567.785156 1013.363281 560.503906 C 972.949219 549.71875 932.054688 541.238281 890.683594 535.0625 C 849.3125 528.890625 807.726562 525.058594 765.925781 523.574219 Z M 765.925781 523.574219 " fill-opacity="1" fill-rule="nonzero"/></g></g></g><g clip-path="url(#aed30a3058)"><g clip-path="url(#d083fb7d16)"><g clip-path="url(#e8c61e3f1b)"><path fill="#bb1b22" d="M 211.769531 667.140625 C 207.203125 670.625 202.921875 674.085938 198.800781 677.625 C 285.769531 662.335938 373.332031 652.183594 461.492188 647.160156 C 549.648438 642.140625 637.800781 642.285156 725.941406 647.601562 C 766.554688 650.050781 809.023438 654.183594 843.320312 675.121094 C 905.335938 656.410156 971.984375 638.824219 1015.484375 593.429688 C 1015.757812 591.339844 1016.058594 589.078125 1016.253906 586.746094 C 909.503906 554.527344 796.316406 543.824219 684.617188 548.261719 C 647.023438 549.769531 609.015625 552.316406 571.203125 556.324219 C 491.160156 564.621094 411.878906 579.058594 339.085938 602.734375 C 295.546875 616.910156 247.070312 640.386719 211.769531 667.140625 Z M 211.769531 667.140625 " fill-opacity="1" fill-rule="nonzero"/></g></g></g><g fill="#ffffff" fill-opacity="1"><g transform="translate(333.97065, 433.08573)"><g><path d="M 8.75 -48.09375 L 25.875 -17.09375 L 31.984375 -51.9375 L 44.28125 -53.984375 L 51.8125 -8.59375 L 42.4375 -7.03125 L 40.375 -19.4375 L 37.75 -41 L 31.109375 -5.15625 L 24.6875 -4.09375 L 6.875 -35.84375 L 11.34375 -14.625 L 13.40625 -2.21875 L 4.046875 -0.671875 L -3.484375 -46.0625 Z M 8.75 -48.09375 "/></g></g></g><g fill="#ffffff" fill-opacity="1"><g transform="translate(389.004946, 424.09211)"><g><path d="M 28.734375 -13 L 12.25 -11.03125 L 10.21875 -1.234375 L 0.21875 -0.03125 L 11.734375 -47.75 L 20.46875 -48.796875 L 43.046875 -5.171875 L 33.046875 -3.96875 Z M 13.859375 -18.9375 L 25.28125 -20.3125 L 17.484375 -36.71875 Z M 13.859375 -18.9375 "/></g></g></g><g fill="#ffffff" fill-opacity="1"><g transform="translate(431.464774, 419.004944)"><g><path d="M 16.953125 -19.90625 L 12.46875 -14.203125 L 13.546875 -1.109375 L 4.09375 -0.328125 L 0.34375 -46.1875 L 9.796875 -46.96875 L 11.5 -26.1875 L 15.1875 -32.21875 L 25.640625 -48.265625 L 37.25 -49.21875 L 22.65625 -27.5 L 41.484375 -3.390625 L 30.25 -2.46875 Z M 16.953125 -19.90625 "/></g></g></g><g fill="#ffffff" fill-opacity="1"><g transform="translate(471.696169, 415.742218)"><g><path d="M 30.828125 -21.421875 L 12.640625 -20.5625 L 13.21875 -8.234375 L 34.5625 -9.234375 L 34.921875 -1.640625 L 4.109375 -0.1875 L 1.953125 -46.15625 L 32.703125 -47.609375 L 33.0625 -39.921875 L 11.78125 -38.921875 L 12.296875 -27.96875 L 30.484375 -28.828125 Z M 30.828125 -21.421875 "/></g></g></g><g fill="#ffffff" fill-opacity="1"><g transform="translate(507.576023, 414.168492)"><g/></g></g><g fill="#ffffff" fill-opacity="1"><g transform="translate(523.167458, 413.645414)"><g><path d="M 20.015625 -25.25 L 29.625 -45.96875 L 39.984375 -45.953125 L 24.84375 -16.65625 L 24.8125 0.03125 L 15.171875 0.03125 L 15.203125 -16.65625 L 0.140625 -46.015625 L 10.53125 -46 Z M 20.015625 -25.25 "/></g></g></g><g fill="#ffffff" fill-opacity="1"><g transform="translate(562.403056, 413.659862)"><g><path d="M 30.4375 -8.3125 L 13.828125 -8.953125 L 10.28125 0.40625 L 0.21875 0.015625 L 19.125 -45.3125 L 27.921875 -44.96875 L 43.328125 1.6875 L 33.25 1.296875 Z M 16.671875 -16.515625 L 28.1875 -16.0625 L 23.0625 -33.5 Z M 16.671875 -16.515625 "/></g></g></g><g fill="#ffffff" fill-opacity="1"><g transform="translate(605.103319, 415.295276)"><g><path d="M 43.5 -18.625 C 43.144531 -14.101562 42.035156 -10.203125 40.171875 -6.921875 C 38.304688 -3.648438 35.8125 -1.207031 32.6875 0.40625 C 29.570312 2.019531 26.097656 2.675781 22.265625 2.375 C 18.460938 2.070312 15.132812 0.894531 12.28125 -1.15625 C 9.4375 -3.21875 7.332031 -6.007812 5.96875 -9.53125 C 4.601562 -13.050781 4.082031 -17.015625 4.40625 -21.421875 L 4.578125 -23.6875 C 4.929688 -28.207031 6.054688 -32.117188 7.953125 -35.421875 C 9.847656 -38.734375 12.359375 -41.191406 15.484375 -42.796875 C 18.609375 -44.398438 22.078125 -45.050781 25.890625 -44.75 C 29.710938 -44.445312 33.035156 -43.257812 35.859375 -41.1875 C 38.691406 -39.125 40.785156 -36.3125 42.140625 -32.75 C 43.503906 -29.1875 44.007812 -25.15625 43.65625 -20.65625 Z M 34.078125 -21.4375 C 34.460938 -26.25 33.890625 -29.972656 32.359375 -32.609375 C 30.828125 -35.242188 28.46875 -36.6875 25.28125 -36.9375 C 22.101562 -37.1875 19.554688 -36.144531 17.640625 -33.8125 C 15.734375 -31.476562 14.582031 -27.925781 14.1875 -23.15625 L 14.015625 -20.9375 C 13.648438 -16.25 14.222656 -12.546875 15.734375 -9.828125 C 17.253906 -7.109375 19.632812 -5.625 22.875 -5.375 C 26.039062 -5.125 28.570312 -6.171875 30.46875 -8.515625 C 32.363281 -10.867188 33.507812 -14.429688 33.90625 -19.203125 Z M 34.078125 -21.4375 "/></g></g></g><g fill="#ffffff" fill-opacity="1"><g transform="translate(649.068829, 418.933754)"><g/></g></g><g fill="#ffffff" fill-opacity="1"><g transform="translate(664.798057, 420.597621)"><g/></g></g><g fill="#ffffff" fill-opacity="1"><g transform="translate(680.501642, 422.487888)"><g/></g></g><g fill="#ffffff" fill-opacity="1"><g transform="translate(288.585397, 524.329187)"><g><path d="M 38.234375 -14.625 C 37.015625 -12.257812 35.007812 -10.179688 32.21875 -8.390625 C 29.425781 -6.597656 26.179688 -5.285156 22.484375 -4.453125 C 18.597656 -3.566406 15 -3.640625 11.6875 -4.671875 C 8.375 -5.703125 5.554688 -7.648438 3.234375 -10.515625 C 0.910156 -13.378906 -0.765625 -16.984375 -1.796875 -21.328125 L -2.484375 -24.390625 C -3.492188 -28.867188 -3.613281 -32.914062 -2.84375 -36.53125 C -2.082031 -40.15625 -0.472656 -43.15625 1.984375 -45.53125 C 4.441406 -47.914062 7.582031 -49.539062 11.40625 -50.40625 C 16.726562 -51.601562 21.171875 -51.273438 24.734375 -49.421875 C 28.304688 -47.578125 30.921875 -44.285156 32.578125 -39.546875 L 23.578125 -37.5 C 22.585938 -39.976562 21.253906 -41.65625 19.578125 -42.53125 C 17.898438 -43.40625 15.828125 -43.566406 13.359375 -43.015625 C 10.222656 -42.296875 8.097656 -40.570312 6.984375 -37.84375 C 5.867188 -35.113281 5.832031 -31.40625 6.875 -26.71875 L 7.515625 -23.859375 C 8.585938 -19.148438 10.285156 -15.796875 12.609375 -13.796875 C 14.941406 -11.804688 17.835938 -11.203125 21.296875 -11.984375 C 24.765625 -12.773438 27.070312 -14.078125 28.21875 -15.890625 L 26.46875 -23.625 L 18.0625 -21.71875 L 16.515625 -28.53125 L 34.171875 -32.53125 Z M 38.234375 -14.625 "/></g></g></g><g fill="#ffffff" fill-opacity="1"><g transform="translate(330.811678, 514.774303)"><g><path d="M 17.6875 -20.4375 L 10.265625 -19.0625 L 13.359375 -2.5 L 4.046875 -0.75 L -4.40625 -45.984375 L 12.390625 -49.125 C 17.734375 -50.125 22.078125 -49.703125 25.421875 -47.859375 C 28.765625 -46.023438 30.84375 -42.929688 31.65625 -38.578125 C 32.226562 -35.484375 32.039062 -32.78125 31.09375 -30.46875 C 30.144531 -28.164062 28.425781 -26.148438 25.9375 -24.421875 L 39.1875 -7.765625 L 39.265625 -7.328125 L 29.265625 -5.46875 Z M 8.859375 -26.59375 L 16.375 -27.984375 C 18.71875 -28.421875 20.414062 -29.351562 21.46875 -30.78125 C 22.53125 -32.21875 22.867188 -33.984375 22.484375 -36.078125 C 22.078125 -38.210938 21.15625 -39.773438 19.71875 -40.765625 C 18.289062 -41.765625 16.320312 -42.03125 13.8125 -41.5625 L 6.328125 -40.171875 Z M 8.859375 -26.59375 "/></g></g></g><g fill="#ffffff" fill-opacity="1"><g transform="translate(370.710102, 507.353815)"><g><path d="M 28.453125 -24.46875 L 10.453125 -21.75 L 12.296875 -9.5625 L 33.421875 -12.75 L 34.5625 -5.21875 L 4.0625 -0.609375 L -2.8125 -46.109375 L 27.625 -50.703125 L 28.78125 -43.09375 L 7.71875 -39.921875 L 9.359375 -29.078125 L 27.359375 -31.796875 Z M 28.453125 -24.46875 "/></g></g></g><g fill="#ffffff" fill-opacity="1"><g transform="translate(405.965369, 501.951639)"><g><path d="M 28.796875 -12.84375 L 12.296875 -10.953125 L 10.234375 -1.171875 L 0.21875 -0.03125 L 12 -47.6875 L 20.734375 -48.703125 L 43.078125 -4.9375 L 33.0625 -3.796875 Z M 13.953125 -18.875 L 25.40625 -20.1875 L 17.671875 -36.625 Z M 13.953125 -18.875 "/></g></g></g><g fill="#ffffff" fill-opacity="1"><g transform="translate(448.46188, 497.098175)"><g><path d="M 35.703125 -41.1875 L 21.640625 -40.109375 L 24.578125 -1.890625 L 15.125 -1.15625 L 12.1875 -39.375 L -1.671875 -38.3125 L -2.265625 -45.96875 L 35.109375 -48.84375 Z M 35.703125 -41.1875 "/></g></g></g><g fill="#ffffff" fill-opacity="1"><g transform="translate(487.870494, 494.210117)"><g/></g></g><g fill="#ffffff" fill-opacity="1"><g transform="translate(503.407534, 493.215919)"><g><path d="M 29.828125 -10.234375 L 13.234375 -9.828125 L 10.296875 -0.25 L 0.21875 0 L 16.1875 -46.4375 L 24.96875 -46.65625 L 43.34375 -1.078125 L 33.265625 -0.828125 Z M 15.59375 -17.5625 L 27.09375 -17.84375 L 20.875 -34.90625 Z M 15.59375 -17.5625 "/></g></g></g><g fill="#ffffff" fill-opacity="1"><g transform="translate(546.130511, 492.125018)"><g><path d="M 40.59375 -5.234375 C 38.851562 -3.222656 36.414062 -1.675781 33.28125 -0.59375 C 30.144531 0.488281 26.679688 1.003906 22.890625 0.953125 C 18.910156 0.890625 15.429688 -0.0234375 12.453125 -1.796875 C 9.484375 -3.578125 7.203125 -6.128906 5.609375 -9.453125 C 4.023438 -12.785156 3.242188 -16.6875 3.265625 -21.15625 L 3.3125 -24.28125 C 3.375 -28.875 4.203125 -32.835938 5.796875 -36.171875 C 7.390625 -39.515625 9.660156 -42.054688 12.609375 -43.796875 C 15.554688 -45.535156 18.988281 -46.378906 22.90625 -46.328125 C 28.363281 -46.242188 32.609375 -44.878906 35.640625 -42.234375 C 38.679688 -39.597656 40.453125 -35.785156 40.953125 -30.796875 L 31.71875 -30.9375 C 31.34375 -33.570312 30.441406 -35.507812 29.015625 -36.75 C 27.585938 -38 25.609375 -38.644531 23.078125 -38.6875 C 19.859375 -38.726562 17.390625 -37.550781 15.671875 -35.15625 C 13.953125 -32.757812 13.046875 -29.164062 12.953125 -24.375 L 12.921875 -21.4375 C 12.847656 -16.613281 13.707031 -12.957031 15.5 -10.46875 C 17.300781 -7.976562 19.972656 -6.707031 23.515625 -6.65625 C 27.066406 -6.601562 29.613281 -7.328125 31.15625 -8.828125 L 31.28125 -16.75 L 22.65625 -16.875 L 22.75 -23.859375 L 40.859375 -23.59375 Z M 40.59375 -5.234375 "/></g></g></g><g fill="#ffffff" fill-opacity="1"><g transform="translate(589.40025, 492.72738)"><g><path d="M 30.53125 -7.859375 L 13.953125 -8.75 L 10.28125 0.546875 L 0.21875 0.015625 L 19.765625 -45.03125 L 28.5625 -44.5625 L 43.296875 2.3125 L 33.234375 1.765625 Z M 16.921875 -16.265625 L 28.40625 -15.65625 L 23.53125 -33.171875 Z M 16.921875 -16.265625 "/></g></g></g><g fill="#ffffff" fill-opacity="1"><g transform="translate(632.29401, 495.180572)"><g><path d="M 14.140625 1.15625 L 4.6875 0.375 L 8.421875 -45.484375 L 17.875 -44.703125 Z M 14.140625 1.15625 "/></g></g></g><g fill="#ffffff" fill-opacity="1"><g transform="translate(650.522403, 496.460466)"><g><path d="M 41.28125 4.5625 L 31.859375 3.515625 L 16.84375 -28.59375 L 13.515625 1.5 L 4.078125 0.453125 L 9.125 -45.28125 L 18.5625 -44.234375 L 33.609375 -12.0625 L 36.9375 -42.21875 L 46.328125 -41.171875 Z M 41.28125 4.5625 "/></g></g></g></svg>